<?xml version="1.0" encoding="UTF-8" standalone="no"?>
<!-- Created with Inkscape (http://www.inkscape.org/) -->

<svg
   version="1.1"
   id="svg2"
   width="1333.3333"
   height="1066.6667"
   viewBox="0 0 1333.3333 1066.6667"
   sodipodi:docname="11cmpr-29.eps"
   xmlns:inkscape="http://www.inkscape.org/namespaces/inkscape"
   xmlns:sodipodi="http://sodipodi.sourceforge.net/DTD/sodipodi-0.dtd"
   xmlns="http://www.w3.org/2000/svg"
   xmlns:svg="http://www.w3.org/2000/svg">
  <defs
     id="defs6" />
  <sodipodi:namedview
     id="namedview4"
     pagecolor="#ffffff"
     bordercolor="#000000"
     borderopacity="0.25"
     inkscape:showpageshadow="2"
     inkscape:pageopacity="0.0"
     inkscape:pagecheckerboard="0"
     inkscape:deskcolor="#d1d1d1" />
  <g
     id="g8"
     inkscape:groupmode="layer"
     inkscape:label="ink_ext_XXXXXX"
     transform="matrix(1.3333333,0,0,-1.3333333,0,1066.6667)">
    <g
       id="g10"
       transform="scale(0.1)">
      <path
         d="m 5549.55,5589.66 c 267.59,267.59 701.45,267.59 969.04,0 267.6,-267.6 267.6,-701.45 0.01,-969.04 -117.2,-117.2 -266.3,-183.06 -419.35,-197.6 189.63,0.7 379.05,73.34 523.73,218.02 290.78,290.78 290.78,762.23 0,1053.01 -290.78,290.78 -762.22,290.78 -1053,0 -144.69,-144.69 -217.32,-334.1 -218.02,-523.73 14.54,153.05 80.39,302.14 197.59,419.34"
         style="fill:#eaeaea;fill-opacity:1;fill-rule:nonzero;stroke:none"
         id="path12" />
      <path
         d="m 3481.41,3521.52 c -267.6,-267.59 -267.6,-701.45 0,-969.04 267.6,-267.6 701.46,-267.6 969.04,0 117.2,117.19 183.06,266.29 197.6,419.34 -0.7,-189.64 -73.34,-379.05 -218.03,-523.73 -290.78,-290.79 -762.22,-290.79 -1053,-0.01 -290.78,290.78 -290.78,762.23 0,1053.01 144.68,144.69 334.1,217.32 523.73,218.02 -153.05,-14.54 -302.14,-80.39 -419.34,-197.59"
         style="fill:#eaeaea;fill-opacity:1;fill-rule:nonzero;stroke:none"
         id="path14" />
      <path
         d="m 3481.41,4620.62 c -267.6,267.59 -267.6,701.44 0,969.04 267.6,267.59 701.46,267.59 969.04,0 117.2,-117.2 183.06,-266.29 197.6,-419.34 -0.7,189.63 -73.34,379.04 -218.03,523.73 -290.78,290.78 -762.22,290.78 -1053,0 -290.78,-290.78 -290.78,-762.23 0,-1053.01 144.68,-144.68 334.1,-217.32 523.73,-218.02 -153.05,14.54 -302.14,80.4 -419.34,197.6"
         style="fill:#eaeaea;fill-opacity:1;fill-rule:nonzero;stroke:none"
         id="path16" />
      <path
         d="m 5549.55,2552.48 c 267.59,-267.6 701.45,-267.6 969.04,0 267.6,267.59 267.6,701.45 0.01,969.04 -117.2,117.2 -266.3,183.05 -419.35,197.59 189.63,-0.7 379.05,-73.33 523.73,-218.02 290.78,-290.78 290.78,-762.23 0,-1053.01 -290.78,-290.78 -762.22,-290.78 -1053,0.01 -144.69,144.68 -217.32,334.09 -218.02,523.73 14.54,-153.05 80.39,-302.15 197.59,-419.34"
         style="fill:#eaeaea;fill-opacity:1;fill-rule:nonzero;stroke:none"
         id="path18" />
      <path
         d="M 6147.22,2949.38 5990.6,3106 c 43.91,31.67 105.46,27.88 144.97,-11.64 39.51,-39.51 43.31,-101.07 11.65,-144.98 z M 5976.7,2935.5 c -39.51,39.51 -43.31,101.07 -11.64,144.97 l 156.63,-156.62 c -43.91,-31.66 -105.46,-27.86 -144.99,11.65 z M 5000,3719.11 c -194.38,0 -351.95,157.58 -351.95,351.96 0,194.38 157.57,351.95 351.95,351.95 66.31,0 128.32,-18.36 181.25,-50.23 -33.77,-22.42 -56.08,-60.76 -56.08,-104.34 0,-69.13 56.04,-125.17 125.17,-125.17 33.02,0 62.97,12.89 85.34,33.78 10.56,-33.45 16.28,-69.05 16.28,-105.99 0,-194.38 -157.58,-351.96 -351.96,-351.96 z M 4023.3,2935.5 c -39.52,-39.51 -101.08,-43.31 -144.97,-11.65 l 156.61,156.63 c 31.67,-43.91 27.87,-105.47 -11.64,-144.98 z m -158.87,158.86 c 39.51,39.51 101.07,43.31 144.98,11.65 l -156.63,-156.63 c -31.65,43.91 -27.85,105.47 11.65,144.98 z m 170.51,1967.3 -156.62,156.63 c 43.9,31.66 105.46,27.86 144.98,-11.65 39.51,-39.51 43.31,-101.08 11.64,-144.98 z m -170.51,-13.89 c -39.5,39.52 -43.3,101.08 -11.65,144.98 l 156.62,-156.62 c -43.9,-31.67 -105.46,-27.87 -144.97,11.64 z m 2112.27,158.87 c 39.53,39.51 101.08,43.31 144.98,11.64 l -156.62,-156.62 c -31.67,43.9 -27.87,105.47 11.64,144.98 z m 158.87,-158.87 c -39.51,-39.51 -101.06,-43.31 -144.98,-11.64 l 156.63,156.62 c 31.66,-43.9 27.86,-105.46 -11.65,-144.98 z m -68.7,-1791.66 -495.44,495.44 c 110.82,197.95 110.82,441.08 0,639.04 l 495.44,495.44 c 53.68,4.21 106.21,26.78 147.27,67.84 91.5,91.5 91.5,239.84 0,331.34 -91.49,91.49 -239.84,91.49 -331.33,0 -41.07,-41.07 -63.64,-93.59 -67.84,-147.27 L 5319.53,4642.5 c -197.96,110.82 -441.1,110.81 -639.05,0 l -495.45,495.44 c -4.2,53.69 -26.77,106.2 -67.84,147.27 -91.48,91.49 -239.83,91.49 -331.33,0 -91.49,-91.5 -91.49,-239.85 0,-331.34 41.07,-41.06 93.58,-63.63 147.28,-67.84 l 495.43,-495.44 c -110.81,-197.95 -110.81,-441.08 0,-639.04 l -495.43,-495.44 c -53.69,-4.21 -106.21,-26.78 -147.28,-67.85 -91.49,-91.49 -91.49,-239.84 0,-331.33 91.49,-91.49 239.84,-91.5 331.33,0 41.07,41.07 63.64,93.58 67.84,147.27 l 495.45,495.44 c 197.95,-110.82 441.09,-110.82 639.05,0 l 495.44,-495.44 c 4.2,-53.69 26.77,-106.21 67.84,-147.27 91.49,-91.49 239.83,-91.5 331.33,0 91.5,91.5 91.5,239.84 0,331.33 -41.06,41.07 -93.58,63.64 -147.27,67.85"
         style="fill:#eaeaea;fill-opacity:1;fill-rule:nonzero;stroke:none"
         id="path20" />
      <path
         d="m 5293.67,4020.52 c 0,-27.92 -22.64,-50.55 -50.55,-50.55 -27.92,0 -50.55,22.63 -50.55,50.55 0,27.92 22.63,50.55 50.55,50.55 27.91,0 50.55,-22.63 50.55,-50.55"
         style="fill:#eaeaea;fill-opacity:1;fill-rule:nonzero;stroke:none"
         id="path22" />
    </g>
  </g>
</svg>
